<svg width="20" height="20" viewBox="0 0 20 20" fill="none" xmlns="http://www.w3.org/2000/svg">
<path d="M17.5117 13.9977L13.8539 10.3398L16.8164 9.28437C16.8367 9.27734 16.8562 9.26953 16.8758 9.26094C17.1643 9.1335 17.4075 8.92173 17.5734 8.65346C17.7393 8.3852 17.8201 8.07301 17.8053 7.75794C17.7904 7.44287 17.6805 7.13969 17.4901 6.88825C17.2996 6.63681 17.0375 6.4489 16.7383 6.34922L4.23125 2.26562C3.95772 2.17772 3.66525 2.16694 3.38599 2.23446C3.10673 2.30198 2.8515 2.44519 2.64834 2.64834C2.44519 2.8515 2.30198 3.10673 2.23446 3.38599C2.16694 3.66525 2.17772 3.95772 2.26562 4.23125L6.34922 16.7375C6.4489 17.0368 6.63681 17.2988 6.88825 17.4893C7.13969 17.6797 7.44287 17.7896 7.75794 17.8045C8.07301 17.8194 8.3852 17.7385 8.65346 17.5726C8.92173 17.4067 9.1335 17.1635 9.26094 16.875C9.26953 16.8555 9.27734 16.8359 9.28437 16.8156L10.3398 13.8531L13.9984 17.5109C14.2914 17.8039 14.6888 17.9684 15.1031 17.9684C15.5174 17.9684 15.9148 17.8039 16.2078 17.5109L17.5117 16.2078C17.6569 16.0627 17.772 15.8904 17.8506 15.7008C17.9292 15.5112 17.9696 15.308 17.9696 15.1027C17.9696 14.8975 17.9292 14.6943 17.8506 14.5046C17.772 14.315 17.6569 14.1428 17.5117 13.9977ZM15.1031 15.9641L11.3156 12.1766C11.0227 11.8835 10.6253 11.7188 10.2109 11.7188C10.1132 11.7189 10.0156 11.7281 9.91953 11.7461C9.66941 11.7933 9.43462 11.9009 9.23555 12.0595C9.03649 12.2181 8.8792 12.423 8.77734 12.6562C8.76875 12.6758 8.76172 12.6953 8.75391 12.7156L7.84375 15.2734L4.24141 4.24141L15.2734 7.84375L12.718 8.75391C12.6984 8.76094 12.6781 8.76875 12.6586 8.77734C12.4252 8.87896 12.2201 9.03607 12.0612 9.23502C11.9024 9.43397 11.7945 9.66872 11.7471 9.91886C11.6996 10.169 11.714 10.4269 11.789 10.6702C11.864 10.9135 11.9973 11.1348 12.1773 11.3148L15.9648 15.1023L15.1031 15.9641ZM6.5625 1.25V0.9375C6.5625 0.68886 6.66127 0.450403 6.83709 0.274587C7.0129 0.098772 7.25136 0 7.5 0C7.74864 0 7.9871 0.098772 8.16291 0.274587C8.33873 0.450403 8.4375 0.68886 8.4375 0.9375V1.25C8.4375 1.49864 8.33873 1.7371 8.16291 1.91291C7.9871 2.08873 7.74864 2.1875 7.5 2.1875C7.25136 2.1875 7.0129 2.08873 6.83709 1.91291C6.66127 1.7371 6.5625 1.49864 6.5625 1.25ZM0.9375 8.4375C0.68886 8.4375 0.450403 8.33873 0.274587 8.16291C0.098772 7.9871 0 7.74864 0 7.5C0 7.25136 0.098772 7.0129 0.274587 6.83709C0.450403 6.66127 0.68886 6.5625 0.9375 6.5625H1.25C1.49864 6.5625 1.7371 6.66127 1.91291 6.83709C2.08873 7.0129 2.1875 7.25136 2.1875 7.5C2.1875 7.74864 2.08873 7.9871 1.91291 8.16291C1.7371 8.33873 1.49864 8.4375 1.25 8.4375H0.9375ZM9.42344 1.89141L9.73594 0.953906C9.81649 0.720579 9.98582 0.528437 10.2072 0.419184C10.4285 0.30993 10.684 0.292382 10.9182 0.370347C11.1524 0.448313 11.3464 0.6155 11.4581 0.835623C11.5698 1.05575 11.5902 1.31104 11.5148 1.54609L11.2023 2.48359C11.1218 2.71692 10.9525 2.90906 10.7311 3.01832C10.5098 3.12757 10.2543 3.14512 10.0201 3.06715C9.78585 2.98919 9.59185 2.822 9.48015 2.60188C9.36845 2.38175 9.34807 2.12646 9.42344 1.89141ZM3.07734 10.0164C3.15575 10.2522 3.13734 10.5095 3.02615 10.7317C2.91497 10.9539 2.7201 11.1229 2.48438 11.2016L1.54688 11.5141C1.42922 11.5567 1.30423 11.5753 1.17928 11.5688C1.05432 11.5623 0.931918 11.5309 0.819291 11.4764C0.706663 11.4219 0.606088 11.3454 0.523492 11.2514C0.440897 11.1574 0.377952 11.0478 0.338368 10.9291C0.298784 10.8104 0.283362 10.685 0.293011 10.5603C0.30266 10.4355 0.337185 10.314 0.39455 10.2028C0.451915 10.0916 0.53096 9.99296 0.627027 9.91279C0.723093 9.83261 0.834236 9.77248 0.953906 9.73594L1.89141 9.42344C2.00821 9.38449 2.13154 9.36894 2.25436 9.37766C2.37717 9.38639 2.49707 9.41922 2.6072 9.47428C2.71732 9.52934 2.81552 9.60556 2.89619 9.69858C2.97686 9.7916 3.03842 9.8996 3.07734 10.0164Z" fill="white"/>
</svg>
